# xmcd CD database file
#
# Track frame offsets:
#	150
#	30347
#	49464
#	77374
#	97986
#	124297
#	139199
#	172768
#	195973
#	237611
#	257913
#	287443
#	307658
#
# Disc length: 4227 seconds
#
# Revision: 0
# Processed by: cddbd v1.5.1PL0 Copyright (c) Steve Scherf et al.
# Submitted via: CDex 1.51
#
DISCID=a110810d
DTITLE=New Black Eagle Jazzband - The New Black Eagle In Concert
DYEAR=1974
DGENRE=Jazz
TTITLE0=Wild Man Blues
TTITLE1=I Found A New Baby
TTITLE2=I'm Travellin'
TTITLE3=Skit-Dat-De-Dat
TTITLE4=You Made Me Love You
TTITLE5=Wild Cat Blues
TTITLE6=Snag It
TTITLE7=Wrought Iron Rag
TTITLE8=Introduction Of Gil Roberts
TTITLE9=Someday Sweethart
TTITLE10=Girl Of My Dreams
TTITLE11=After You'av Gone
TTITLE12=Down In Honky Tonk Town
EXTD=YEAR: 1974
EXTT0=
EXTT1=
EXTT2=
EXTT3=
EXTT4=
EXTT5=
EXTT6=
EXTT7=
EXTT8=
EXTT9=
EXTT10=
EXTT11=
EXTT12=
PLAYORDER=
